<svg xmlns="http://www.w3.org/2000/svg" width="900" height="520" viewBox="0 0 900 520">
  <defs><linearGradient id="g" x1="0" y1="0" x2="1" y2="1"><stop stop-color="#171b26"/><stop offset="1" stop-color="#10131b"/></linearGradient><linearGradient id="a" x1="0" y1="0" x2="1" y2="1"><stop stop-color="#ff8365"/><stop offset="1" stop-color="#a88dff"/></linearGradient></defs>
  <rect width="900" height="520" rx="36" fill="url(#g)"/><rect x="20" y="20" width="860" height="480" rx="26" fill="#11151e" stroke="#fff" stroke-opacity=".1"/>
  <rect x="20" y="20" width="72" height="480" rx="26" fill="#0c0f16"/><rect x="42" y="48" width="28" height="28" rx="9" fill="url(#a)"/><rect x="38" y="112" width="36" height="36" rx="11" fill="#232938"/><rect x="38" y="160" width="36" height="36" rx="11" fill="#1a202c"/><rect x="38" y="208" width="36" height="36" rx="11" fill="#1a202c"/>
  <rect x="92" y="20" width="218" height="480" fill="#151a24"/><rect x="115" y="56" width="170" height="46" rx="12" fill="#1e2431"/><rect x="115" y="130" width="130" height="10" rx="5" fill="#6f7789" fill-opacity=".5"/><rect x="115" y="156" width="174" height="34" rx="9" fill="#272e3e"/><rect x="129" y="169" width="110" height="8" rx="4" fill="#f4f1e9" fill-opacity=".8"/><rect x="115" y="199" width="174" height="34" rx="9" fill="#1a202c"/><rect x="129" y="212" width="84" height="8" rx="4" fill="#b2b7c3" fill-opacity=".55"/>
  <rect x="310" y="20" width="570" height="74" fill="#121720"/><rect x="337" y="45" width="36" height="24" rx="8" fill="#272e3e"/><rect x="386" y="44" width="130" height="11" rx="5.5" fill="#f4f1e9" fill-opacity=".85"/><rect x="386" y="62" width="190" height="7" rx="3.5" fill="#8d95a7" fill-opacity=".5"/>
  <circle cx="356" cy="145" r="19" fill="#ff8365"/><rect x="389" y="128" width="86" height="10" rx="5" fill="#f4f1e9" fill-opacity=".86"/><rect x="389" y="148" width="310" height="9" rx="4.5" fill="#b2b7c3" fill-opacity=".5"/><rect x="389" y="168" width="250" height="9" rx="4.5" fill="#b2b7c3" fill-opacity=".34"/>
  <rect x="389" y="194" width="356" height="82" rx="16" fill="#1c1b30" stroke="#a88dff" stroke-opacity=".32"/><rect x="405" y="214" width="42" height="42" rx="12" fill="#a88dff"/><rect x="464" y="212" width="90" height="7" rx="3.5" fill="#c3f574"/><rect x="464" y="230" width="190" height="10" rx="5" fill="#f4f1e9" fill-opacity=".8"/><rect x="464" y="249" width="150" height="7" rx="3.5" fill="#8d95a7" fill-opacity=".45"/>
  <circle cx="356" cy="326" r="19" fill="#a88dff"/><rect x="389" y="310" width="100" height="10" rx="5" fill="#f4f1e9" fill-opacity=".86"/><rect x="389" y="330" width="350" height="9" rx="4.5" fill="#b2b7c3" fill-opacity=".5"/><rect x="389" y="350" width="290" height="9" rx="4.5" fill="#b2b7c3" fill-opacity=".34"/><rect x="389" y="374" width="44" height="23" rx="11.5" fill="#202635"/><rect x="441" y="374" width="44" height="23" rx="11.5" fill="#202635"/>
  <rect x="337" y="424" width="516" height="54" rx="15" fill="#1a202c" stroke="#fff" stroke-opacity=".1"/><rect x="355" y="445" width="240" height="9" rx="4.5" fill="#747c8e" fill-opacity=".45"/><rect x="806" y="436" width="30" height="30" rx="9" fill="#ff8365"/>
</svg>
